<svg xmlns="http://www.w3.org/2000/svg" xmlns:xlink="http://www.w3.org/1999/xlink" width="1000" zoomAndPan="magnify" viewBox="0 0 750 749.999995" height="1000" preserveAspectRatio="xMidYMid meet" version="1.0"><defs><clipPath id="65a012c3a9"><path d="M 75 75 L 674.96875 75 L 674.96875 674.960938 L 75 674.960938 Z M 75 75 " clip-rule="nonzero"/></clipPath></defs><g clip-path="url(#65a012c3a9)"><path fill="#ffffff" d="M 190.269531 104.265625 C 142.851562 104.265625 104.269531 142.847656 104.269531 190.265625 L 104.269531 559.695312 C 104.269531 607.121094 142.851562 645.695312 190.269531 645.695312 L 559.699219 645.695312 C 607.121094 645.695312 645.699219 607.121094 645.699219 559.695312 L 645.699219 190.265625 C 645.699219 142.847656 607.121094 104.265625 559.699219 104.265625 Z M 559.699219 674.960938 L 190.269531 674.960938 C 126.707031 674.960938 75 623.246094 75 559.695312 L 75 190.265625 C 75 126.707031 126.707031 74.996094 190.269531 74.996094 L 559.699219 74.996094 C 623.253906 74.996094 674.96875 126.707031 674.96875 190.265625 L 674.96875 559.695312 C 674.96875 623.246094 623.253906 674.960938 559.699219 674.960938 " fill-opacity="1" fill-rule="nonzero"/></g><path fill="#ffffff" d="M 507.875 281.203125 L 242.09375 281.203125 C 234.007812 281.203125 227.457031 274.648438 227.457031 266.566406 C 227.457031 258.484375 234.007812 251.929688 242.09375 251.929688 L 507.875 251.929688 C 515.960938 251.929688 522.511719 258.484375 522.511719 266.566406 C 522.511719 274.648438 515.960938 281.203125 507.875 281.203125 " fill-opacity="1" fill-rule="nonzero"/><path fill="#ffffff" d="M 507.875 498.03125 L 242.09375 498.03125 C 234.007812 498.03125 227.457031 491.476562 227.457031 483.394531 C 227.457031 475.3125 234.007812 468.761719 242.09375 468.761719 L 507.875 468.761719 C 515.960938 468.761719 522.511719 475.3125 522.511719 483.394531 C 522.511719 491.476562 515.960938 498.03125 507.875 498.03125 " fill-opacity="1" fill-rule="nonzero"/><path fill="#ffffff" d="M 507.875 389.617188 L 242.09375 389.617188 C 234.007812 389.617188 227.457031 383.0625 227.457031 374.980469 C 227.457031 366.898438 234.007812 360.347656 242.09375 360.347656 L 507.875 360.347656 C 515.960938 360.347656 522.511719 366.898438 522.511719 374.980469 C 522.511719 383.0625 515.960938 389.617188 507.875 389.617188 " fill-opacity="1" fill-rule="nonzero"/></svg>